<svg xmlns="http://www.w3.org/2000/svg" viewBox="0 0 394.84 421.65"><defs><style>.cls-1{fill:#fff;}.cls-2{fill:#40333c;}.cls-3{fill:#eee6ed;}.cls-4{fill:#ffa861;}.cls-5{fill:#282026;}</style></defs><title>Recurso 1logo</title><g id="Capa_2" data-name="Capa 2"><g id="object"><path class="cls-1" d="M43.66,418.78c-14.5-5.75-24.32-19.08-25-34-.06-2-9.26-196.16-9.24-198.13-8.11-10.51-9-26.35-1.57-37.32-11.7-25.22-13.57-53.4,17.68-64l283-83.68c19.4-6.14,42.73,5.46,49.1,24.75l22,62.15L172.47,149.8l172.79-1.38c20.52-.55,39.79,16.63,40.33,36.84L394.8,381.8a34.91,34.91,0,0,1-10.08,26.36,37.6,37.6,0,0,1-26.78,11.1L59,421.65A40.57,40.57,0,0,1,43.66,418.78Z"/><path class="cls-2" d="M365.36,185.42,374.56,382c.46,9.75-7.39,17.73-17.53,17.81l-299,2.39c-10.14.08-18.73-7.77-19.19-17.52L29.67,188.1c-.46-9.77,7.4-17.74,17.53-17.82l299-2.39C356.31,167.81,364.91,175.65,365.36,185.42Z"/><path class="cls-3" d="M365.36,185.42l1.43,30.43-335.7,2.68c.64-15.73-9.43-47.45,16.11-48.25l299-2.39C356.31,167.81,364.91,175.65,365.36,185.42Z"/><polygon class="cls-2" points="117.86 217.83 80.38 218.13 53.27 170.23 90.75 169.93 117.86 217.83"/><polygon class="cls-2" points="192.35 217.24 154.87 217.54 127.77 169.64 165.25 169.34 192.35 217.24"/><polygon class="cls-2" points="266.86 216.64 229.36 216.94 202.26 169.04 239.75 168.74 266.86 216.64"/><polygon class="cls-2" points="341.35 216.05 303.86 216.35 276.75 168.45 314.24 168.15 341.35 216.05"/><path class="cls-2" d="M338.43,32.06l15.41,43.52-317.72,94L20.72,126a16.92,16.92,0,0,1,11.39-22l283-83.68A19.21,19.21,0,0,1,338.43,32.06Z"/><polygon class="cls-3" points="118.24 145.25 82.77 155.74 37.86 102.27 73.33 91.78 118.24 145.25"/><polygon class="cls-3" points="188.74 124.4 153.27 134.89 108.36 81.42 143.83 70.93 188.74 124.4"/><polygon class="cls-3" points="259.26 103.55 223.77 114.04 178.86 60.57 214.35 50.08 259.26 103.55"/><polygon class="cls-3" points="329.76 82.7 294.27 93.19 249.36 39.72 284.85 29.23 329.76 82.7"/><path class="cls-3" d="M368.27,247.49l-.22-4.71-335.7,2.68.22,4.71,119.94-1L155,303.07,35.1,304l.22,4.71L371,306.06l-.22-4.71-129.36,1-2.52-53.86ZM235.84,302.42l-75.21.6-2.52-53.85,75.21-.6Z"/><path class="cls-3" d="M262.48,377.64l-125.19,1a2.52,2.52,0,0,1-2.56-2.34h0a2.29,2.29,0,0,1,2.34-2.37l125.19-1a2.52,2.52,0,0,1,2.56,2.34h0A2.29,2.29,0,0,1,262.48,377.64Z"/><path class="cls-1" d="M172,352.86c-13.06.11-24.17-10-24.76-22.62l-3.47-74.06c-.59-12.57,9.56-22.89,22.63-23,7.6-2.6,72.56,36.54,80.33,39.47a23.53,23.53,0,0,1,12.76,19.65,21.43,21.43,0,0,1-10.91,19.84c-7.91,3.32-68.52,43.1-76.58,40.72Z"/><path class="cls-4" d="M240,284c-93-47-84.56-65.94-78.91,46.44a9.82,9.82,0,0,0,14.74,8.05l64.47-37.31A9.83,9.83,0,0,0,240,284Z"/><polygon class="cls-5" points="367.12 222.91 31.42 225.59 31.09 218.53 366.79 215.85 367.12 222.91"/><path class="cls-4" d="M52.21,167.79C52.79,186.61,23.66,186,23,168,22.37,149.2,51.51,149.79,52.21,167.79Z"/></g></g></svg>